# xmcd
#
# Track frame offsets: 
#        150
#        16698
#        29524
#        46306
#        63101
#        82718
#        104603
#        119551
#
# Disc length: 1854 seconds
#
# Revision: 0
# Processed by: cddbd v1.5.2PL0 Copyright (c) Steve Scherf et al.
# Submitted via: ExactAudioCopy v1.3
#
DISCID=5a073c08
DTITLE=Sean Pinchin - Monkey Brain
DYEAR=2016
DGENRE=Blues Rock
TTITLE0=Monkey Brain
TTITLE1=Can't Stand It
TTITLE2=Charity Case
TTITLE3=Hard Luck
TTITLE4=Living In The Past
TTITLE5=Goin' Hobo
TTITLE6=Monsters
TTITLE7=Get Burned
EXTD=
EXTT0=
EXTT1=
EXTT2=
EXTT3=
EXTT4=
EXTT5=
EXTT6=
EXTT7=
PLAYORDER=
